<?xml version="1.0" standalone="no"?>
<!DOCTYPE svg PUBLIC "-//W3C//DTD SVG 20010904//EN"
 "http://www.w3.org/TR/2001/REC-SVG-20010904/DTD/svg10.dtd">
<svg version="1.0" xmlns="http://www.w3.org/2000/svg"
 width="600.000000pt" height="578.000000pt" viewBox="0 0 600.000000 578.000000"
 preserveAspectRatio="xMidYMid meet">

<g transform="translate(0.000000,578.000000) scale(0.100000,-0.100000)"
fill="#ffffff" stroke="none">
<path d="M2958 5768 c-9 -7 -101 -139 -205 -293 -598 -889 -1065 -1414 -1680
-1893 -254 -198 -629 -447 -912 -607 -158 -89 -186 -120 -143 -157 9 -8 87
-57 172 -108 896 -539 1549 -1079 2111 -1745 176 -209 459 -605 618 -867 80
-131 95 -130 181 20 704 1212 1527 2009 2754 2667 196 106 194 123 -16 209
-189 77 -509 235 -683 337 -862 504 -1480 1186 -2042 2254 -107 201 -116 213
-155 183z"/>
</g>
</svg>
